# xmcd CD database file
#
# Track frame offsets:
#	150
#	17530
#	42860
#	68738
#	99216
#	114633
#	144707
#	179069
#	197083
#
# Disc length: 2890 seconds
#
# Revision: 0
# Processed by: cddbd v1.5.2PL0 Copyright (c) Steve Scherf et al.
# Submitted via: CDex 1.51
#
DISCID=790b4809
DTITLE=Hörbie Schmidt Band - Wir kommen aus dem Hohen Norden
DYEAR=2014
DGENRE=Blues
TTITLE0=Wir kommen aus dem Hohen Norden
TTITLE1=Ich komm' in die Jahre
TTITLE2=The Thrill Is Gone
TTITLE3=Little Wing
TTITLE4=Sweet Home Chicago
TTITLE5=Streit and Eifersucht
TTITLE6=Old Love
TTITLE7=Nachtgemahl
TTITLE8=Pride and Joy
EXTD=YEAR: 2014
EXTT0=
EXTT1=
EXTT2=
EXTT3=
EXTT4=
EXTT5=
EXTT6=
EXTT7=
EXTT8=
PLAYORDER=
